<svg width="756" height="724" viewBox="0 0 756 724" fill="none" xmlns="http://www.w3.org/2000/svg">
<path d="M4.89988 4.11111C10.8999 -2.88889 69.8999 4.11112 69.8999 4.11112L679.9 4.11113C679.9 4.11113 733.9 -2.88888 741.9 4.11112C742.073 4.2621 742.239 4.72806 742.401 5.49542C744.468 11.2744 752.233 33.6154 752.233 43.1511C752.233 54.1511 757.233 706.151 752.233 714.151C747.233 722.151 692.233 722.151 692.233 722.151H69.8999L20.2332 714.151L9.28965 707.014C7.02461 706.158 5.47173 705.207 4.89988 704.151C0.56655 696.151 -1.10012 11.1111 4.89988 4.11111Z" fill="#D9D9D9"/>
<path d="M69.8999 4.11112C69.8999 4.11112 10.8999 -2.88889 4.89988 4.11111C-1.10012 11.1111 0.56655 696.151 4.89988 704.151M69.8999 4.11112L679.9 4.11113M69.8999 4.11112V714.151M4.89988 704.151C9.23322 712.151 69.8999 714.151 69.8999 714.151M4.89988 704.151L20.2332 714.151L69.8999 722.151H692.233C692.233 722.151 747.233 722.151 752.233 714.151C757.233 706.151 752.233 54.1511 752.233 43.1511C752.233 32.1511 741.9 4.11112 741.9 4.11112M741.9 4.11112C749.9 11.1111 745.567 695.151 741.9 704.151C738.233 713.151 679.9 714.151 679.9 714.151M741.9 4.11112C733.9 -2.88888 679.9 4.11113 679.9 4.11113M679.9 4.11113V714.151M69.8999 714.151H679.9" stroke="#C9C9C9" stroke-width="2"/>
</svg>
